<svg width="30" height="24" viewBox="0 0 30 24" fill="none" xmlns="http://www.w3.org/2000/svg">
<g clip-path="url(#clip0_3_2)">
<path d="M25.4368 0.0666752C23.3867 -0.0703408 21.2828 0.0456853 19.2303 0.0456853H10.7685C8.71106 0.0456853 6.61454 -0.0703408 4.56078 0.0666752C2.08552 0.229613 0 1.95774 0 4.61782C0 5.82912 0.476262 6.99079 1.32401 7.84731C2.17176 8.70382 3.32156 9.18502 4.52046 9.18502C6.01344 9.18502 7.90715 8.37157 8.34209 6.7928C8.57277 6.00787 8.55009 5.16913 8.27734 4.3981C8.1114 3.93943 7.85708 3.51855 7.52909 3.15984C7.20111 2.80112 6.80596 2.51169 6.36652 2.30829C5.97373 2.13373 5.5506 2.0395 5.12156 2.03103C4.69253 2.02255 4.26608 2.1 3.86683 2.25892C3.53514 2.38389 3.23207 2.57572 2.97605 2.82272C2.72002 3.06972 2.51639 3.36674 2.37752 3.69573C1.83018 5.05355 2.29078 6.31509 3.55162 6.91623C3.77606 7.03351 4.02174 7.1035 4.27376 7.12196C4.52578 7.14042 4.77888 7.10697 5.01772 7.02362C5.23122 6.94371 5.42679 6.82153 5.59294 6.66425C5.7591 6.50697 5.89251 6.31776 5.98534 6.10771C6.1328 5.7443 6.14021 5.33827 6.00611 4.96962C5.95163 4.7873 5.86163 4.61782 5.74141 4.47114C5.62119 4.32445 5.47317 4.20351 5.30605 4.11542C5.18725 4.0597 5.05868 4.02838 4.92781 4.0233C4.79693 4.01821 4.66636 4.03946 4.54368 4.0858C4.4208 4.13099 4.30804 4.20044 4.21197 4.29008C4.11591 4.37972 4.03845 4.48776 3.98412 4.60794C3.94363 4.69646 3.92085 4.7922 3.91708 4.88964C3.9133 4.98708 3.92861 5.0843 3.96213 5.17575C3.99496 5.26744 4.04559 5.35158 4.11105 5.42323C4.17651 5.49488 4.25547 5.55258 4.34331 5.59297C4.41828 5.62788 4.47648 5.69143 4.50511 5.76966C4.53374 5.84789 4.53048 5.93439 4.49603 6.01019C4.46123 6.08603 4.39811 6.14485 4.32048 6.17377C4.24286 6.20269 4.15705 6.19934 4.08186 6.16449C3.91955 6.08961 3.77362 5.98284 3.65259 5.85038C3.53155 5.71792 3.43784 5.56244 3.37691 5.393C3.31511 5.22418 3.28697 5.04468 3.2941 4.86482C3.30122 4.68496 3.34349 4.50831 3.41845 4.34502C3.50696 4.14948 3.63298 3.97364 3.78922 3.82765C3.94546 3.68167 4.12881 3.56843 4.32865 3.49453C4.52796 3.41981 4.73993 3.38572 4.95235 3.39419C5.16477 3.40266 5.37343 3.45355 5.56628 3.54391C5.81035 3.66732 6.02733 3.83913 6.20428 4.04908C6.38123 4.25903 6.51452 4.50283 6.59621 4.76594C6.78287 5.28732 6.76671 5.86083 6.55101 6.37063C6.42361 6.6562 6.24121 6.91329 6.01447 7.12692C5.78772 7.34054 5.52115 7.50641 5.2303 7.61488C4.91448 7.72416 4.5803 7.76887 4.24722 7.74641C3.91414 7.72395 3.5888 7.63476 3.29016 7.48405C1.99145 6.86686 1.02993 5.3856 1.80574 3.45751C1.97765 3.04962 2.23016 2.68149 2.54779 2.37563C2.86543 2.06978 3.24152 1.83265 3.65302 1.67876C4.13049 1.48899 4.64049 1.39684 5.15347 1.40764C5.66644 1.41845 6.17219 1.532 6.64142 1.74172C7.15529 1.97966 7.61736 2.31817 8.00092 2.73769C8.38448 3.1572 8.6819 3.6494 8.87599 4.18579C9.03129 4.61195 9.11911 5.06019 9.13622 5.51398H20.8809C20.899 5.06019 20.9872 4.61205 21.1423 4.18579C21.3364 3.6494 21.6338 3.1572 22.0174 2.73769C22.401 2.31817 22.863 1.97966 23.3769 1.74172C23.8459 1.53204 24.3515 1.4185 24.8643 1.40769C25.377 1.39688 25.8868 1.48902 26.3641 1.67876C26.7757 1.83263 27.152 2.06974 27.4698 2.37559C27.7877 2.68143 28.0404 3.04958 28.2126 3.45751C28.9884 5.37943 28.0269 6.86562 26.7282 7.48405C26.4295 7.63476 26.1042 7.72395 25.7711 7.74641C25.438 7.76887 25.1038 7.72416 24.788 7.61488C24.4972 7.50641 24.2306 7.34054 24.0039 7.12692C23.7771 6.91329 23.5947 6.6562 23.4673 6.37063C23.2516 5.86083 23.2355 5.28732 23.4221 4.76594C23.5038 4.50283 23.6371 4.25903 23.814 4.04908C23.991 3.83913 24.208 3.66732 24.452 3.54391C24.6449 3.45355 24.8536 3.40266 25.066 3.39419C25.2784 3.38572 25.4904 3.41981 25.6897 3.49453C25.8895 3.56843 26.0729 3.68167 26.2291 3.82765C26.3853 3.97364 26.5114 4.14948 26.5999 4.34502C26.6748 4.50831 26.7171 4.68496 26.7242 4.86482C26.7314 5.04468 26.7032 5.22418 26.6414 5.393C26.5803 5.56255 26.4864 5.71811 26.3652 5.85057C26.2439 5.98304 26.0978 6.08975 25.9352 6.16449C25.8602 6.19929 25.7746 6.20259 25.6972 6.17366C25.6197 6.14473 25.5569 6.08594 25.5223 6.01019C25.4878 5.93439 25.4846 5.84789 25.5132 5.76966C25.5418 5.69143 25.6 5.62788 25.675 5.59297C25.7629 5.55258 25.8418 5.49488 25.9073 5.42323C25.9727 5.35158 26.0234 5.26744 26.0562 5.17575C26.0897 5.0843 26.105 4.98708 26.1012 4.88964C26.0975 4.7922 26.0747 4.69646 26.0342 4.60794C25.9798 4.48761 25.9022 4.37945 25.8059 4.28979C25.7096 4.20014 25.5966 4.13079 25.4734 4.0858C25.351 4.03949 25.2206 4.01827 25.0899 4.02336C24.9592 4.02844 24.8309 4.05973 24.7123 4.11542C24.545 4.20349 24.3968 4.32441 24.2764 4.47109C24.156 4.61777 24.0657 4.78725 24.011 4.96962C23.8773 5.33843 23.8851 5.74446 24.033 6.10771C24.1258 6.31776 24.2592 6.50697 24.4254 6.66425C24.5915 6.82153 24.7871 6.94371 25.0006 7.02362C25.2395 7.10676 25.4926 7.1401 25.7445 7.12164C25.9965 7.10319 26.2422 7.03331 26.4667 6.91623C27.7263 6.31509 28.1869 5.05231 27.6384 3.69573C27.4981 3.3667 27.2928 3.07008 27.035 2.82407C26.7772 2.57807 26.4724 2.38785 26.1393 2.26509C25.7402 2.10621 25.314 2.02877 24.8852 2.03725C24.4563 2.04572 24.0334 2.13995 23.6408 2.31447C23.2012 2.51764 22.806 2.80699 22.4779 3.16573C22.1499 3.52447 21.8957 3.94546 21.73 4.40426C21.4572 5.17529 21.4346 6.01404 21.6652 6.79896C22.1002 8.37773 23.9939 9.19118 25.4869 9.19118C26.6858 9.19118 27.8356 8.71 28.6833 7.85348C29.5311 6.99697 30.0073 5.83528 30.0073 4.62399C29.9988 1.95773 27.912 0.229613 25.4368 0.0666752Z" fill="#977C3D"/>
<path d="M11.2585 9.8849C11.2585 9.7008 11.3308 9.52423 11.4595 9.39393C11.5882 9.26364 11.7629 9.19027 11.9451 9.18994C12.1272 9.19059 12.3016 9.26407 12.4303 9.3943C12.559 9.52452 12.6314 9.7009 12.6317 9.8849V24H14.3128V9.8849C14.3131 9.7009 14.3856 9.52452 14.5142 9.3943C14.6429 9.26407 14.8173 9.19059 14.9994 9.18994C15.1816 9.19059 15.356 9.26407 15.4847 9.3943C15.6133 9.52452 15.6857 9.7009 15.6861 9.8849V24H17.3672V9.83799C17.3675 9.65399 17.4399 9.47761 17.5686 9.34739C17.6972 9.21717 17.8717 9.14369 18.0538 9.14304C18.2359 9.14369 18.4104 9.21717 18.539 9.34739C18.6677 9.47761 18.7401 9.65399 18.7404 9.83799V24H21.603L20.738 6.2941H9.22547L8.36414 24H11.2621L11.2585 9.8849Z" fill="#977C3D"/>
<path d="M14.9615 0.0456853H10.7685C8.71105 0.0456853 6.61454 -0.0703408 4.56078 0.0666752C2.08552 0.229613 0 1.95774 0 4.61782C0 5.82912 0.476262 6.99079 1.32401 7.84731C2.17176 8.70382 3.32156 9.18502 4.52046 9.18502C6.01344 9.18502 7.90715 8.37157 8.34209 6.7928C8.57277 6.00787 8.55009 5.16913 8.27734 4.3981C8.1114 3.93943 7.85708 3.51855 7.52909 3.15984C7.20111 2.80112 6.80596 2.51169 6.36652 2.30829C5.97373 2.13373 5.5506 2.0395 5.12156 2.03103C4.69253 2.02255 4.26608 2.1 3.86683 2.25892C3.53514 2.38389 3.23207 2.57572 2.97605 2.82272C2.72002 3.06972 2.51639 3.36674 2.37752 3.69573C1.83018 5.05355 2.29078 6.31509 3.55162 6.91623C3.77606 7.03351 4.02174 7.1035 4.27376 7.12196C4.52578 7.14042 4.77888 7.10697 5.01771 7.02362C5.23122 6.94371 5.42679 6.82153 5.59294 6.66425C5.7591 6.50697 5.89251 6.31776 5.98534 6.10771C6.1328 5.7443 6.14021 5.33827 6.00611 4.96962C5.95162 4.7873 5.86163 4.61782 5.74141 4.47114C5.62119 4.32445 5.47317 4.20351 5.30605 4.11542C5.18725 4.0597 5.05868 4.02838 4.92781 4.0233C4.79693 4.01821 4.66636 4.03946 4.54368 4.0858C4.4208 4.13099 4.30804 4.20044 4.21197 4.29008C4.11591 4.37972 4.03845 4.48776 3.98412 4.60794C3.94363 4.69646 3.92085 4.7922 3.91708 4.88964C3.9133 4.98708 3.92861 5.0843 3.96213 5.17575C3.99496 5.26744 4.04559 5.35158 4.11105 5.42323C4.17651 5.49488 4.25547 5.55258 4.34331 5.59297C4.41828 5.62788 4.47648 5.69143 4.50511 5.76966C4.53374 5.84789 4.53048 5.93439 4.49603 6.01019C4.46123 6.08603 4.39811 6.14485 4.32048 6.17377C4.24286 6.20269 4.15705 6.19934 4.08186 6.16449C3.91955 6.08961 3.77362 5.98284 3.65259 5.85038C3.53155 5.71792 3.43784 5.56244 3.37691 5.393C3.31511 5.22418 3.28697 5.04468 3.2941 4.86482C3.30122 4.68496 3.34349 4.50831 3.41845 4.34502C3.50696 4.14948 3.63298 3.97364 3.78922 3.82765C3.94546 3.68167 4.12881 3.56843 4.32865 3.49453C4.52796 3.41981 4.73993 3.38572 4.95235 3.39419C5.16477 3.40266 5.37342 3.45355 5.56628 3.54391C5.81035 3.66732 6.02733 3.83913 6.20428 4.04908C6.38123 4.25903 6.51452 4.50283 6.59621 4.76594C6.78287 5.28732 6.76671 5.86083 6.55101 6.37063C6.42361 6.6562 6.24121 6.91329 6.01447 7.12692C5.78772 7.34054 5.52115 7.50641 5.2303 7.61488C4.91448 7.72416 4.5803 7.76887 4.24722 7.74641C3.91414 7.72395 3.5888 7.63476 3.29016 7.48405C1.99145 6.86686 1.02993 5.3856 1.80574 3.45751C1.97765 3.04962 2.23016 2.68149 2.54779 2.37563C2.86543 2.06978 3.24152 1.83265 3.65302 1.67876C4.13049 1.48899 4.64049 1.39684 5.15347 1.40764C5.66644 1.41845 6.17219 1.532 6.64142 1.74172C7.15529 1.97966 7.61736 2.31817 8.00092 2.73769C8.38448 3.1572 8.6819 3.6494 8.87599 4.18579C9.03129 4.61195 9.11911 5.06019 9.13622 5.51398H14.9615V0.0456853Z" fill="#AF9967"/>
<path d="M14.9616 6.2941H9.21936L8.36414 24H11.2621V9.8849C11.2621 9.7008 11.3344 9.52423 11.4632 9.39393C11.5919 9.26364 11.7665 9.19027 11.9487 9.18994C12.1309 9.19059 12.3053 9.26407 12.434 9.3943C12.5626 9.52452 12.635 9.7009 12.6354 9.8849V24H14.3165V9.8849C14.3169 9.70697 14.385 9.53601 14.5066 9.40736C14.6283 9.27871 14.7942 9.2022 14.9701 9.19365L14.9616 6.2941Z" fill="#AF9967"/>
</g>
<defs>
<clipPath id="clip0_3_2">
<rect width="30" height="24" fill="white"/>
</clipPath>
</defs>
</svg>
