<svg width="19" height="25" viewBox="0 0 19 25" fill="none" xmlns="http://www.w3.org/2000/svg">
<path d="M9.42859 0.453125C6.92888 0.456091 4.5324 1.45603 2.76483 3.2336C0.997271 5.01117 0.00295901 7.42122 1.00311e-05 9.93509C-0.00298388 11.9894 0.66428 13.988 1.89944 15.6243C1.89944 15.6243 2.15658 15.9648 2.19858 16.0139L9.42859 24.589L16.662 16.0096C16.6997 15.9639 16.9577 15.6243 16.9577 15.6243L16.9586 15.6217C18.1931 13.9861 18.8601 11.9885 18.8572 9.93509C18.8542 7.42122 17.8599 5.01117 16.0923 3.2336C14.3248 1.45603 11.9283 0.456091 9.42859 0.453125ZM9.42859 13.3831C8.75048 13.3831 8.0876 13.1809 7.52378 12.802C6.95995 12.4231 6.5205 11.8846 6.261 11.2546C6.0015 10.6245 5.9336 9.93126 6.06589 9.26242C6.19819 8.59357 6.52473 7.9792 7.00422 7.49699C7.48372 7.01478 8.09463 6.68639 8.75971 6.55335C9.42479 6.42031 10.1142 6.48859 10.7406 6.74956C11.3671 7.01053 11.9026 7.45247 12.2793 8.01949C12.6561 8.58651 12.8572 9.25314 12.8572 9.93509C12.856 10.8492 12.4944 11.7255 11.8517 12.3719C11.209 13.0183 10.3376 13.3819 9.42859 13.3831Z" fill="white"/>
</svg>
